<svg width="80" height="80" viewBox="0 0 80 80" fill="none" xmlns="http://www.w3.org/2000/svg">
<path d="M28.4656 77.7376C29.6032 77.248 30.4 76.1168 30.4 74.8V66.16C30.4 65.8448 30.4256 65.5168 30.4656 65.184C30.4432 65.1904 30.4224 65.1952 30.4 65.2C30.4 65.2 25.6 65.2 24.64 65.2C22.24 65.2 20.16 64.24 19.2 62.32C18.08 60.24 17.6 56.72 14.72 54.8C14.24 54.48 14.56 54 15.52 54C16.48 54.16 18.56 55.44 19.84 57.2C21.28 58.96 22.72 60.4 25.28 60.4C29.2592 60.4 31.392 60.2 32.6752 59.512C34.1696 57.2896 36.2384 55.6 38.4 55.6V55.56C29.3312 55.2688 23.5376 52.2544 20.84 47.6C14.976 47.6672 9.8704 48.248 6.9568 48.7312C6.864 48.208 6.784 47.6816 6.7152 47.152C9.5904 46.6784 14.464 46.1168 20.0672 46.0096C19.888 45.568 19.7328 45.1152 19.6016 44.6512C13.984 44.3664 9.136 44.5888 6.5024 44.8064C6.4704 44.2752 6.4272 43.7456 6.4208 43.208C9.0592 42.992 13.776 42.776 19.2496 43.0304C19.1232 42.2304 19.0416 41.4128 19.0416 40.5616C19.0416 37.8416 20.0016 34.9616 21.7616 32.5616C20.9616 29.8416 19.8416 24.0816 22.0816 22.0016C26.4016 22.0016 29.4416 24.0816 30.8816 25.3616C33.6 24.24 36.64 23.6 40 23.6C43.36 23.6 46.4 24.24 48.96 25.36C50.4 24.08 53.44 22 57.76 22C60.16 24.24 58.88 30 58.08 32.56C59.84 34.96 60.8 37.68 60.64 40.56C60.64 41.3344 60.568 42.0816 60.464 42.8144C66.0624 42.5392 70.9072 42.76 73.5904 42.9776C73.5872 43.5168 73.5376 44.0432 73.5088 44.576C70.8352 44.3552 65.8688 44.128 60.1344 44.4336C59.992 44.9712 59.8192 45.4944 59.6144 46.0016C65.288 46.0752 70.2784 46.624 73.2912 47.104C73.2224 47.6352 73.1424 48.1616 73.0496 48.6832C69.9904 48.1936 64.776 47.6208 58.8432 47.592C56.1792 52.1968 50.4912 55.2 41.6 55.5504V55.6C45.76 55.6 49.6 61.84 49.6 66.16V74.8C49.6 76.1168 50.3968 77.248 51.5344 77.7376C66.192 72.8864 76.8 59.0624 76.8 42.8C76.8 22.5088 60.2928 6 40 6C19.7072 6 3.2 22.5088 3.2 42.8C3.2 59.0624 13.808 72.8864 28.4656 77.7376Z" fill="black"/>
</svg>
