<svg width="80" height="80" viewBox="0 0 80 80" fill="none" xmlns="http://www.w3.org/2000/svg">
<path d="M68.3333 5H11.6667L16.6667 61.6667L40 68.3333L63.3333 61.6667L68.3333 5Z" fill="#0277BD"/>
<path d="M40 10V63.1667L58.6667 57.8333L62.8333 10H40Z" fill="#039BE5"/>
<path d="M55.1667 21.6667H40V28.3334H48.1667L47.6667 35H40V41.6667H47.3333L46.8333 49.1667L40 51.5V58.5L53.1667 54.1667L54.3333 35L55.1667 21.6667Z" fill="white"/>
<path d="M40 21.6667V28.3334H25.1667L24.6667 21.6667H40ZM32.3333 35L32.6667 41.6667H40V35H32.3333ZM33 45H26.3333L26.8333 54.1667L40 58.5V51.5L33.1667 49.1667L33 45Z" fill="#EEEEEE"/>
</svg>
