<svg width="80" height="80" viewBox="0 0 80 80" fill="none" xmlns="http://www.w3.org/2000/svg">
<path d="M70.3333 38.5L43.1667 11.3333C42.3333 10.5 41.1667 10 40 10C38.8333 10 37.6667 10.5 36.8333 11.3333L31 17.1667L37.8333 24C38.5 23.6667 39.1667 23.5 40 23.5C42.8333 23.5 45 25.6667 45 28.5C45 29.3333 44.8333 30 44.5 30.6667L51.1667 37.3333C51.8333 37 52.5 36.8333 53.3333 36.8333C56.1667 36.8333 58.3333 39 58.3333 41.8333C58.3333 44.6667 56.1667 46.8333 53.3333 46.8333C50.5 46.8333 48.3333 44.6667 48.3333 41.8333C48.3333 41 48.5 40.3333 48.8333 39.6667L42.1667 33C42 33 41.8333 33.1667 41.6667 33.1667V50.5C43.6667 51.1667 45 53 45 55.1667C45 58 42.8333 60.1667 40 60.1667C37.1667 60.1667 35 58 35 55.1667C35 53 36.3333 51.1667 38.3333 50.5V33C36.3333 32.3333 35 30.5 35 28.3333C35 27.5 35.1667 26.8333 35.5 26.1667L28.6667 19.3333L9.66668 38.5C8.83334 39.3333 8.33334 40.5 8.33334 41.6667C8.33334 42.8333 8.83334 44 9.66668 44.8333L36.8333 72C37.6667 72.8333 38.8333 73.3333 40 73.3333C41.1667 73.3333 42.3333 72.8333 43.1667 72L70.3333 44.8333C71.1667 44 71.6667 42.8333 71.6667 41.6667C71.6667 40.5 71.1667 39.3333 70.3333 38.5Z" fill="#F4511E"/>
</svg>
