<svg width="80" height="80" viewBox="0 0 80 80" fill="none" xmlns="http://www.w3.org/2000/svg">
<path d="M70 53.6667C70 58.27 66.27 62 61.6667 62H18.3333C13.7317 62 10 58.27 10 53.6667V10.3333C10 5.73 13.7317 2 18.3333 2H61.6667C66.27 2 70 5.73 70 10.3333V53.6667Z" fill="#673AB7"/>
<path d="M55.05 34.6667C53.9667 33.1667 52.4 32.1333 50.3833 31.5833C50.3833 31.5833 52.0833 30.9667 53.6167 28.6667C54.5333 27.2 55 25.4333 55 23.3667C55 19.7833 53.7 17.0333 51.1 15.15C48.5 13.2667 45.5667 12 40.5833 12H25V52H42.3833C47.1 51.9667 50.65 50.95 53.0667 49C55.4667 47.0167 56.6667 44.0833 56.6667 40.1667C56.6667 38 56.1333 36.1667 55.05 34.6667ZM35 18.6667C35 18.6667 41.95 18.6667 42.0833 18.6667C44.6167 18.6667 46.6667 20.7167 46.6667 23.25C46.6667 25.7833 44.6167 27.8333 42.0833 27.8333C41.95 27.8333 35 27.8333 35 27.8333V18.6667ZM43.3333 45.3333H35V35.3333H43.3333C46.1 35.3333 48.3333 37.5667 48.3333 40.3333C48.3333 43.1 46.1 45.3333 43.3333 45.3333Z" fill="white"/>
</svg>
