<svg width="80" height="80" viewBox="0 0 80 80" fill="none" xmlns="http://www.w3.org/2000/svg">
<path d="M66.445 35.5942C63.8817 35.6076 61.6617 36.2226 59.8017 37.1409C59.1217 35.7826 58.4317 34.5876 58.3167 33.6992C58.1817 32.6626 58.025 32.0426 58.1883 30.8076C58.3517 29.5726 59.0667 27.8226 59.0567 27.6909C59.0467 27.5592 58.8967 26.9309 57.4184 26.9192C55.94 26.9092 54.675 27.2042 54.5267 27.5942C54.3783 27.9842 54.0933 28.8626 53.9167 29.7792C53.6583 31.1192 50.965 35.9009 49.4367 38.4009C48.9367 37.4242 48.5117 36.5642 48.4234 35.8842C48.2884 34.8476 48.1317 34.2276 48.295 32.9926C48.4584 31.7576 49.1734 30.0076 49.1633 29.8759C49.1534 29.7442 49.0033 29.1159 47.525 29.1042C46.0467 29.0942 44.7817 29.3892 44.6334 29.7792C44.485 30.1692 44.325 31.0809 44.0233 31.9642C43.72 32.8459 40.1417 40.8209 39.2034 42.8892C38.725 43.9426 38.31 44.7892 38.0167 45.3659C38.015 45.3642 38.015 45.3626 38.015 45.3626C38.015 45.3626 37.9967 45.4009 37.9667 45.4659C37.715 45.9576 37.5667 46.2292 37.5667 46.2292C37.5667 46.2292 37.5683 46.2326 37.5717 46.2392C37.3717 46.6009 37.1584 46.9359 37.0534 46.9359C36.98 46.9359 36.8317 45.9742 37.085 44.6542C37.6184 41.8876 38.8967 37.5742 38.885 37.4242C38.8783 37.3476 39.1234 36.5959 38.05 36.2026C37.0067 35.8209 36.635 36.4576 36.54 36.4592C36.4483 36.4609 36.38 36.6842 36.38 36.6842C36.38 36.6842 37.5417 31.8326 34.1633 31.8326C32.05 31.8326 29.1234 34.1442 27.6817 36.2392C26.7717 36.7359 24.8233 37.7992 22.7584 38.9342C21.965 39.3709 21.155 39.8159 20.3867 40.2392C20.335 40.1809 20.2817 40.1242 20.2283 40.0659C16.13 35.6942 8.55668 32.6026 8.87668 26.7242C8.99335 24.5876 9.73668 18.9609 23.4317 12.1376C34.65 6.54757 43.6317 8.0859 45.1834 11.4942C47.4 16.3659 40.3834 25.4176 28.7334 26.7242C24.295 27.2226 21.9567 25.5009 21.375 24.8609C20.7633 24.1859 20.6717 24.1559 20.4433 24.2826C20.0717 24.4892 20.3067 25.0842 20.4433 25.4392C20.7917 26.3442 22.2184 27.9492 24.6517 28.7492C26.7934 29.4526 32.005 29.8376 38.3067 27.3992C45.3667 24.6692 50.8784 17.0726 49.2584 10.7242C47.6117 4.26757 36.905 2.14424 26.7717 5.74424C20.7333 7.88757 14.205 11.2509 9.51002 15.6409C3.92835 20.8609 3.03835 25.4059 3.40502 27.3042C4.70835 34.0509 14.0067 38.4442 17.73 41.6992C17.5467 41.8009 17.3734 41.8959 17.2167 41.9826C15.35 42.9059 8.26168 46.6159 6.48835 50.5342C4.47668 54.9792 6.80835 58.1692 8.35168 58.5992C13.1333 59.9292 18.04 57.5359 20.6783 53.6026C23.315 49.6709 22.9933 44.5492 21.7833 42.2126C21.7683 42.1842 21.7517 42.1559 21.7367 42.1259C22.2183 41.8409 22.71 41.5509 23.1967 41.2642C24.1467 40.7059 25.08 40.1859 25.8883 39.7459C25.435 40.9859 25.1033 42.4742 24.9317 44.6226C24.7283 47.1459 25.7634 50.4076 27.1167 51.6909C27.7134 52.2559 28.43 52.2692 28.8834 52.2692C30.4584 52.2692 31.1767 50.9592 31.9683 49.4092C32.9384 47.5092 33.8 45.2959 33.8 45.2959C33.8 45.2959 32.72 51.2726 35.6634 51.2726C36.7367 51.2726 37.815 49.8809 38.2967 49.1726C38.2984 49.1809 38.2984 49.1842 38.2984 49.1842C38.2984 49.1842 38.3267 49.1376 38.3817 49.0459C38.4934 48.8759 38.5567 48.7676 38.5567 48.7676C38.5567 48.7676 38.5583 48.7559 38.5617 48.7359C38.9934 47.9876 39.95 46.2809 41.3834 43.4659C43.2367 39.8292 45.0134 35.2726 45.0134 35.2726C45.0134 35.2726 45.1783 36.3859 45.72 38.2292C46.0383 39.3126 46.715 40.5109 47.25 41.6609C46.82 42.2576 46.5567 42.5992 46.5567 42.5992C46.5567 42.5992 46.5583 42.6059 46.5634 42.6176C46.22 43.0742 45.835 43.5659 45.4317 44.0459C43.9684 45.7876 42.2267 47.7776 41.9934 48.3509C41.7183 49.0276 41.7834 49.5242 42.315 49.9259C42.7034 50.2176 43.3934 50.2642 44.115 50.2159C45.43 50.1276 46.3534 49.8009 46.81 49.6026C47.5217 49.3509 48.35 48.9559 49.1267 48.3842C50.5617 47.3292 51.4267 45.8209 51.3433 43.8209C51.2967 42.7192 50.9467 41.6276 50.5017 40.5976C50.6317 40.4109 50.7617 40.2209 50.8933 40.0309C53.155 36.7242 54.91 33.0909 54.91 33.0909C54.91 33.0909 55.075 34.2042 55.6167 36.0476C55.89 36.9792 56.4317 37.9976 56.9184 38.9942C54.7917 40.7226 53.4734 42.7309 53.015 44.0476C52.1684 46.4842 52.8317 47.5876 54.075 47.8392C54.6384 47.9526 55.435 47.6942 56.0333 47.4409C56.7784 47.1942 57.6733 46.7826 58.51 46.1676C59.945 45.1126 61.325 43.6359 61.2417 41.6376C61.2033 40.7276 60.9567 39.8242 60.6217 38.9576C62.425 38.2059 64.7584 37.7892 67.7317 38.1359C74.11 38.8809 75.36 42.8626 75.1217 44.5292C74.8817 46.1959 73.545 47.1126 73.0967 47.3892C72.65 47.6659 72.5133 47.7626 72.55 47.9676C72.605 48.2659 72.8117 48.2559 73.1934 48.1909C73.7184 48.1026 76.5417 46.8359 76.6634 43.7592C76.815 39.8492 73.0733 35.5592 66.445 35.5942ZM17.2833 52.1676C15.17 54.4726 12.22 55.3426 10.9533 54.6092C9.58668 53.8176 10.1283 50.4242 12.72 47.9776C14.3 46.4876 16.34 45.1142 17.6933 44.2692C18.0017 44.0842 18.4534 43.8126 19.0034 43.4826C19.095 43.4309 19.1467 43.4026 19.1467 43.4026L19.145 43.3992C19.2517 43.3359 19.36 43.2709 19.4717 43.2026C20.4167 46.6842 19.5017 49.7492 17.2833 52.1676ZM32.675 41.7059C31.94 43.4992 30.4 48.0892 29.4617 47.8426C28.6567 47.6309 28.1667 44.1426 29.3017 40.7092C29.8717 38.9809 31.0917 36.9159 31.8083 36.1142C32.9617 34.8242 34.2317 34.4026 34.54 34.9259C34.9317 35.5926 33.1367 40.5809 32.675 41.7059ZM45.39 47.7726C45.0784 47.9359 44.7917 48.0376 44.66 47.9592C44.5617 47.9009 44.7883 47.6859 44.7883 47.6859C44.7883 47.6859 46.3783 45.9742 47.005 45.1959C47.37 44.7426 47.7917 44.2042 48.2517 43.6042C48.255 43.6642 48.2567 43.7242 48.2567 43.7826C48.2534 45.8326 46.2733 47.2159 45.39 47.7726ZM55.185 45.5392C54.9517 45.3742 54.9917 44.8392 55.7567 43.1709C56.0567 42.5159 56.7433 41.4142 57.9333 40.3609C58.0717 40.7942 58.155 41.2092 58.1533 41.5959C58.1383 44.1759 56.2984 45.1392 55.185 45.5392Z" fill="#F06292"/>
</svg>
