<svg width="138" height="38" viewBox="0 0 138 38" fill="none" xmlns="http://www.w3.org/2000/svg">
<path d="M20.52 3.736L19.704 9.352H7.992V17.32H18.216V22.84H7.992V31.336H20.52V37H0.119995V3.736H20.52Z" fill="black"/>
<path d="M33.9832 10.696C35.8072 10.696 37.5192 10.968 39.1192 11.512C40.7192 12.056 42.1272 12.824 43.3432 13.816L40.5592 18.088C38.4792 16.776 36.3832 16.12 34.2712 16.12C33.2792 16.12 32.5112 16.296 31.9672 16.648C31.4552 16.968 31.1992 17.432 31.1992 18.04C31.1992 18.52 31.3112 18.92 31.5352 19.24C31.7912 19.528 32.2872 19.832 33.0232 20.152C33.7592 20.472 34.8952 20.856 36.4312 21.304C39.0872 22.072 41.0552 23.08 42.3352 24.328C43.6472 25.544 44.3032 27.24 44.3032 29.416C44.3032 31.144 43.8072 32.648 42.8152 33.928C41.8232 35.176 40.4632 36.136 38.7352 36.808C37.0072 37.48 35.0872 37.816 32.9752 37.816C30.8312 37.816 28.8312 37.48 26.9752 36.808C25.1512 36.136 23.5992 35.208 22.3192 34.024L26.0152 29.896C28.1592 31.56 30.4152 32.392 32.7832 32.392C33.9352 32.392 34.8312 32.184 35.4712 31.768C36.1432 31.352 36.4792 30.76 36.4792 29.992C36.4792 29.384 36.3512 28.904 36.0952 28.552C35.8392 28.2 35.3432 27.88 34.6072 27.592C33.8712 27.272 32.7032 26.888 31.1032 26.44C28.5752 25.704 26.6872 24.68 25.4392 23.368C24.1912 22.056 23.5672 20.424 23.5672 18.472C23.5672 17 23.9832 15.688 24.8152 14.536C25.6792 13.352 26.8952 12.424 28.4632 11.752C30.0632 11.048 31.9032 10.696 33.9832 10.696Z" fill="black"/>
<path d="M64.1944 35.8C63.2664 36.44 62.1784 36.936 60.9304 37.288C59.7144 37.64 58.4984 37.816 57.2824 37.816C51.7144 37.784 48.9304 34.712 48.9304 28.6V16.792H45.3304V11.512H48.9304V5.992L56.5144 5.128V11.512H62.3704L61.5544 16.792H56.5144V28.504C56.5144 29.688 56.7064 30.536 57.0904 31.048C57.4744 31.56 58.0824 31.816 58.9144 31.816C59.7784 31.816 60.6904 31.544 61.6504 31L64.1944 35.8Z" fill="black"/>
<path d="M81.654 10.696C83.862 10.696 85.59 11.368 86.838 12.712C88.086 14.056 88.71 15.944 88.71 18.376V37H81.126V19.672C81.126 18.392 80.918 17.512 80.502 17.032C80.086 16.52 79.494 16.264 78.726 16.264C77.19 16.264 75.718 17.352 74.31 19.528V37H66.726V1.384L74.31 0.615997V14.248C75.366 13.064 76.486 12.184 77.67 11.608C78.854 11 80.182 10.696 81.654 10.696Z" fill="black"/>
<path d="M116.653 23.752C116.653 24.808 116.605 25.72 116.509 26.488H100.717C100.973 28.632 101.581 30.136 102.541 31C103.501 31.864 104.829 32.296 106.525 32.296C107.549 32.296 108.541 32.12 109.501 31.768C110.461 31.384 111.501 30.808 112.621 30.04L115.741 34.264C112.765 36.632 109.453 37.816 105.805 37.816C101.677 37.816 98.5091 36.6 96.3011 34.168C94.0931 31.736 92.9891 28.472 92.9891 24.376C92.9891 21.784 93.4531 19.464 94.3811 17.416C95.3091 15.336 96.6691 13.704 98.4611 12.52C100.253 11.304 102.397 10.696 104.893 10.696C108.573 10.696 111.453 11.848 113.533 14.152C115.613 16.456 116.653 19.656 116.653 23.752ZM109.213 21.592C109.149 17.688 107.773 15.736 105.085 15.736C103.773 15.736 102.749 16.216 102.013 17.176C101.309 18.136 100.877 19.72 100.717 21.928H109.213V21.592Z" fill="black"/>
<path d="M134.738 10.792C135.666 10.792 136.513 10.904 137.281 11.128L136.081 18.472C135.121 18.248 134.353 18.136 133.777 18.136C132.273 18.136 131.122 18.664 130.322 19.72C129.554 20.744 128.945 22.296 128.497 24.376V37H120.913V11.512H127.537L128.161 16.456C128.737 14.696 129.601 13.32 130.753 12.328C131.937 11.304 133.266 10.792 134.738 10.792Z" fill="black"/>
</svg>
